# xmcd
#
# Track frame offsets:
#   150
#   17311
#   39066
#   56311
#   70061
#   92001
#   109309
#   135002
#   160113
#   180805
#   202613
#   223506
#   243923
#   264252
#   285931
#   307886
#   329653
#
# Disc length: 4680 seconds
#
# Revision: 0
# Processed by: cddbd v1.5.2PL0 Copyright (c) Steve Scherf et al.
# Submitted via: GXTranscoder 2.0.1939
#
DISCID=c3124611
DTITLE=mix - mix
DYEAR=1900
DGENRE=domaca
TTITLE0=n
TTITLE1=nn
TTITLE2=nnn
TTITLE3=nnnn
TTITLE4=Tell Him
TTITLE5=n
TTITLE6=nnnnnnnn
TTITLE7=fgtsthtes
TTITLE8=htetahethet
TTITLE9=herahdrfghbfc
TTITLE10=Uzalud je budim
TTITLE11=brtnbsbn
TTITLE12=Piu Bella
TTITLE13=x
TTITLE14=xx
TTITLE15=xxx
TTITLE16=xxxx
EXTD=
EXTT0=
EXTT1=
EXTT2=
EXTT3=
EXTT4=
EXTT5=
EXTT6=
EXTT7=
EXTT8=
EXTT9=
EXTT10=
EXTT11=
EXTT12=
EXTT13=
EXTT14=
EXTT15=
EXTT16=
PLAYORDER=
